<svg xmlns="http://www.w3.org/2000/svg" xmlns:xlink="http://www.w3.org/1999/xlink" width="250" zoomAndPan="magnify" viewBox="0 0 187.5 262.500001" height="350" preserveAspectRatio="xMidYMid meet" version="1.0"><defs><filter x="0%" y="0%" width="100%" height="100%" id="dfaee9e37b"><feColorMatrix values="0 0 0 0 1 0 0 0 0 1 0 0 0 0 1 0 0 0 1 0" color-interpolation-filters="sRGB"/></filter><g/><clipPath id="a7cc4d0c4c"><path d="M 0 0.101562 L 187 0.101562 L 187 261.902344 L 0 261.902344 Z M 0 0.101562 " clip-rule="nonzero"/></clipPath><mask id="4f502a80f7"><g filter="url(#dfaee9e37b)"><rect x="-18.75" width="225" fill="#000000" y="-26.25" height="315.000001" fill-opacity="0.53"/></g></mask><clipPath id="6c5580e7cd"><path d="M 0 0.101562 L 187 0.101562 L 187 261.902344 L 0 261.902344 Z M 0 0.101562 " clip-rule="nonzero"/></clipPath><clipPath id="40c05e1f8d"><rect x="0" width="187" y="0" height="262"/></clipPath></defs><g clip-path="url(#a7cc4d0c4c)"><g mask="url(#4f502a80f7)"><g transform="matrix(1, 0, 0, 1, 0, 0.000000000000029282)"><g clip-path="url(#40c05e1f8d)"><g clip-path="url(#6c5580e7cd)"><path fill="#fefcfb" d="M 0 0.101562 L 187 0.101562 L 187 261.609375 L 0 261.609375 Z M 0 0.101562 " fill-opacity="1" fill-rule="nonzero"/></g></g></g></g></g><g fill="#ffffff" fill-opacity="1"><g transform="translate(24.362766, 138.480723)"><g><path d="M 11 -8.140625 C 11.914062 -7.941406 12.648438 -7.484375 13.203125 -6.765625 C 13.765625 -6.046875 14.046875 -5.226562 14.046875 -4.3125 C 14.046875 -2.988281 13.582031 -1.9375 12.65625 -1.15625 C 11.738281 -0.382812 10.445312 0 8.78125 0 L 1.40625 0 L 1.40625 -15.859375 L 8.546875 -15.859375 C 10.148438 -15.859375 11.40625 -15.488281 12.3125 -14.75 C 13.226562 -14.007812 13.6875 -13.007812 13.6875 -11.75 C 13.6875 -10.8125 13.441406 -10.035156 12.953125 -9.421875 C 12.460938 -8.804688 11.8125 -8.378906 11 -8.140625 Z M 5.265625 -9.4375 L 7.796875 -9.4375 C 8.429688 -9.4375 8.914062 -9.578125 9.25 -9.859375 C 9.59375 -10.140625 9.765625 -10.550781 9.765625 -11.09375 C 9.765625 -11.632812 9.59375 -12.046875 9.25 -12.328125 C 8.914062 -12.617188 8.429688 -12.765625 7.796875 -12.765625 L 5.265625 -12.765625 Z M 8.109375 -3.125 C 8.753906 -3.125 9.253906 -3.269531 9.609375 -3.5625 C 9.960938 -3.851562 10.140625 -4.273438 10.140625 -4.828125 C 10.140625 -5.390625 9.953125 -5.828125 9.578125 -6.140625 C 9.210938 -6.460938 8.707031 -6.625 8.0625 -6.625 L 5.265625 -6.625 L 5.265625 -3.125 Z M 8.109375 -3.125 "/></g></g></g><g fill="#ffffff" fill-opacity="1"><g transform="translate(39.250943, 138.480723)"><g><path d="M 5.203125 -15.859375 L 5.203125 -6.375 C 5.203125 -5.425781 5.429688 -4.691406 5.890625 -4.171875 C 6.359375 -3.660156 7.046875 -3.40625 7.953125 -3.40625 C 8.859375 -3.40625 9.550781 -3.660156 10.03125 -4.171875 C 10.507812 -4.691406 10.75 -5.425781 10.75 -6.375 L 10.75 -15.859375 L 14.625 -15.859375 L 14.625 -6.390625 C 14.625 -4.972656 14.320312 -3.773438 13.71875 -2.796875 C 13.113281 -1.816406 12.300781 -1.078125 11.28125 -0.578125 C 10.269531 -0.0859375 9.140625 0.15625 7.890625 0.15625 C 6.640625 0.15625 5.519531 -0.0859375 4.53125 -0.578125 C 3.539062 -1.066406 2.757812 -1.800781 2.1875 -2.78125 C 1.613281 -3.769531 1.328125 -4.972656 1.328125 -6.390625 L 1.328125 -15.859375 Z M 5.203125 -15.859375 "/></g></g></g><g fill="#ffffff" fill-opacity="1"><g transform="translate(55.178355, 138.480723)"><g><path d="M 15.59375 0 L 11.71875 0 L 5.265625 -9.78125 L 5.265625 0 L 1.40625 0 L 1.40625 -15.859375 L 5.265625 -15.859375 L 11.71875 -6.03125 L 11.71875 -15.859375 L 15.59375 -15.859375 Z M 15.59375 0 "/></g></g></g><g fill="#ffffff" fill-opacity="1"><g transform="translate(72.167604, 138.480723)"><g><path d="M 7.34375 -15.859375 C 9.007812 -15.859375 10.46875 -15.523438 11.71875 -14.859375 C 12.96875 -14.203125 13.9375 -13.273438 14.625 -12.078125 C 15.3125 -10.878906 15.65625 -9.5 15.65625 -7.9375 C 15.65625 -6.382812 15.3125 -5.003906 14.625 -3.796875 C 13.9375 -2.585938 12.960938 -1.648438 11.703125 -0.984375 C 10.453125 -0.328125 9 0 7.34375 0 L 1.40625 0 L 1.40625 -15.859375 Z M 7.09375 -3.34375 C 8.550781 -3.34375 9.6875 -3.738281 10.5 -4.53125 C 11.3125 -5.332031 11.71875 -6.46875 11.71875 -7.9375 C 11.71875 -9.394531 11.3125 -10.53125 10.5 -11.34375 C 9.6875 -12.15625 8.550781 -12.5625 7.09375 -12.5625 L 5.265625 -12.5625 L 5.265625 -3.34375 Z M 7.09375 -3.34375 "/></g></g></g><g fill="#ffffff" fill-opacity="1"><g transform="translate(88.592047, 138.480723)"><g><path d="M 5.265625 -2.984375 L 10.328125 -2.984375 L 10.328125 0 L 1.40625 0 L 1.40625 -15.859375 L 5.265625 -15.859375 Z M 5.265625 -2.984375 "/></g></g></g><g fill="#ffffff" fill-opacity="1"><g transform="translate(99.368466, 138.480723)"><g><path d="M 5.265625 -12.765625 L 5.265625 -9.5625 L 10.4375 -9.5625 L 10.4375 -6.578125 L 5.265625 -6.578125 L 5.265625 -3.09375 L 11.109375 -3.09375 L 11.109375 0 L 1.40625 0 L 1.40625 -15.859375 L 11.109375 -15.859375 L 11.109375 -12.765625 Z M 5.265625 -12.765625 "/></g></g></g><g fill="#ffffff" fill-opacity="1"><g transform="translate(111.590779, 138.480723)"><g/></g></g><g fill="#ffffff" fill-opacity="1"><g transform="translate(116.380302, 138.480723)"><g><path d="M 7.140625 0.15625 C 5.984375 0.15625 4.941406 -0.03125 4.015625 -0.40625 C 3.097656 -0.78125 2.363281 -1.335938 1.8125 -2.078125 C 1.269531 -2.816406 0.984375 -3.707031 0.953125 -4.75 L 5.0625 -4.75 C 5.125 -4.15625 5.328125 -3.703125 5.671875 -3.390625 C 6.015625 -3.085938 6.46875 -2.9375 7.03125 -2.9375 C 7.601562 -2.9375 8.050781 -3.066406 8.375 -3.328125 C 8.707031 -3.597656 8.875 -3.960938 8.875 -4.421875 C 8.875 -4.816406 8.742188 -5.140625 8.484375 -5.390625 C 8.222656 -5.648438 7.898438 -5.863281 7.515625 -6.03125 C 7.128906 -6.195312 6.582031 -6.382812 5.875 -6.59375 C 4.851562 -6.914062 4.015625 -7.234375 3.359375 -7.546875 C 2.710938 -7.859375 2.15625 -8.320312 1.6875 -8.9375 C 1.226562 -9.5625 1 -10.367188 1 -11.359375 C 1 -12.835938 1.53125 -13.992188 2.59375 -14.828125 C 3.664062 -15.671875 5.0625 -16.09375 6.78125 -16.09375 C 8.53125 -16.09375 9.9375 -15.671875 11 -14.828125 C 12.070312 -13.992188 12.644531 -12.832031 12.71875 -11.34375 L 8.546875 -11.34375 C 8.515625 -11.851562 8.320312 -12.253906 7.96875 -12.546875 C 7.625 -12.835938 7.179688 -12.984375 6.640625 -12.984375 C 6.171875 -12.984375 5.789062 -12.859375 5.5 -12.609375 C 5.21875 -12.367188 5.078125 -12.015625 5.078125 -11.546875 C 5.078125 -11.035156 5.316406 -10.632812 5.796875 -10.34375 C 6.285156 -10.0625 7.039062 -9.753906 8.0625 -9.421875 C 9.09375 -9.078125 9.925781 -8.742188 10.5625 -8.421875 C 11.195312 -8.109375 11.75 -7.648438 12.21875 -7.046875 C 12.6875 -6.441406 12.921875 -5.664062 12.921875 -4.71875 C 12.921875 -3.8125 12.691406 -2.988281 12.234375 -2.25 C 11.773438 -1.519531 11.109375 -0.9375 10.234375 -0.5 C 9.359375 -0.0625 8.328125 0.15625 7.140625 0.15625 Z M 7.140625 0.15625 "/></g></g></g><g fill="#ffffff" fill-opacity="1"><g transform="translate(130.274429, 138.480723)"><g><path d="M 5.265625 -15.859375 L 5.265625 0 L 1.40625 0 L 1.40625 -15.859375 Z M 5.265625 -15.859375 "/></g></g></g><g fill="#ffffff" fill-opacity="1"><g transform="translate(136.939091, 138.480723)"><g><path d="M 5.515625 -3.15625 L 12.34375 -3.15625 L 12.34375 0 L 1.125 0 L 1.125 -2.9375 L 7.90625 -12.703125 L 1.125 -12.703125 L 1.125 -15.859375 L 12.34375 -15.859375 L 12.34375 -12.921875 Z M 5.515625 -3.15625 "/></g></g></g><g fill="#ffffff" fill-opacity="1"><g transform="translate(150.403973, 138.480723)"><g><path d="M 5.265625 -12.765625 L 5.265625 -9.5625 L 10.4375 -9.5625 L 10.4375 -6.578125 L 5.265625 -6.578125 L 5.265625 -3.09375 L 11.109375 -3.09375 L 11.109375 0 L 1.40625 0 L 1.40625 -15.859375 L 11.109375 -15.859375 L 11.109375 -12.765625 Z M 5.265625 -12.765625 "/></g></g></g></svg>