<svg xmlns="http://www.w3.org/2000/svg" xmlns:xlink="http://www.w3.org/1999/xlink" width="250" zoomAndPan="magnify" viewBox="0 0 187.5 262.500001" height="350" preserveAspectRatio="xMidYMid meet" version="1.0"><defs><g/><clipPath id="1a27ef4a5e"><path d="M 0 0.101562 L 187 0.101562 L 187 261.902344 L 0 261.902344 Z M 0 0.101562 " clip-rule="nonzero"/></clipPath></defs><g clip-path="url(#1a27ef4a5e)"><path fill="#ffffff" d="M 0 0.101562 L 187 0.101562 L 187 261.902344 L 0 261.902344 Z M 0 0.101562 " fill-opacity="1" fill-rule="nonzero"/><path fill="#ffbd59" d="M 0 0.101562 L 187 0.101562 L 187 261.902344 L 0 261.902344 Z M 0 0.101562 " fill-opacity="1" fill-rule="nonzero"/></g><g fill="#fefcfb" fill-opacity="1"><g transform="translate(20.511708, 122.772612)"><g><path d="M 0.75 -7.953125 C 0.75 -9.515625 1.085938 -10.910156 1.765625 -12.140625 C 2.441406 -13.367188 3.382812 -14.328125 4.59375 -15.015625 C 5.8125 -15.703125 7.1875 -16.046875 8.71875 -16.046875 C 10.601562 -16.046875 12.210938 -15.546875 13.546875 -14.546875 C 14.890625 -13.554688 15.789062 -12.203125 16.25 -10.484375 L 12 -10.484375 C 11.675781 -11.148438 11.222656 -11.65625 10.640625 -12 C 10.066406 -12.34375 9.410156 -12.515625 8.671875 -12.515625 C 7.484375 -12.515625 6.519531 -12.097656 5.78125 -11.265625 C 5.039062 -10.441406 4.671875 -9.335938 4.671875 -7.953125 C 4.671875 -6.566406 5.039062 -5.457031 5.78125 -4.625 C 6.519531 -3.800781 7.484375 -3.390625 8.671875 -3.390625 C 9.410156 -3.390625 10.066406 -3.5625 10.640625 -3.90625 C 11.222656 -4.25 11.675781 -4.753906 12 -5.421875 L 16.25 -5.421875 C 15.789062 -3.703125 14.890625 -2.347656 13.546875 -1.359375 C 12.210938 -0.378906 10.601562 0.109375 8.71875 0.109375 C 7.1875 0.109375 5.8125 -0.226562 4.59375 -0.90625 C 3.382812 -1.59375 2.441406 -2.546875 1.765625 -3.765625 C 1.085938 -4.992188 0.75 -6.390625 0.75 -7.953125 Z M 0.75 -7.953125 "/></g></g></g><g fill="#fefcfb" fill-opacity="1"><g transform="translate(37.726878, 122.772612)"><g><path d="M 5.203125 -15.859375 L 5.203125 -6.375 C 5.203125 -5.425781 5.429688 -4.691406 5.890625 -4.171875 C 6.359375 -3.660156 7.046875 -3.40625 7.953125 -3.40625 C 8.859375 -3.40625 9.550781 -3.660156 10.03125 -4.171875 C 10.507812 -4.691406 10.75 -5.425781 10.75 -6.375 L 10.75 -15.859375 L 14.625 -15.859375 L 14.625 -6.390625 C 14.625 -4.972656 14.320312 -3.773438 13.71875 -2.796875 C 13.113281 -1.816406 12.300781 -1.078125 11.28125 -0.578125 C 10.269531 -0.0859375 9.140625 0.15625 7.890625 0.15625 C 6.640625 0.15625 5.519531 -0.0859375 4.53125 -0.578125 C 3.539062 -1.066406 2.757812 -1.800781 2.1875 -2.78125 C 1.613281 -3.769531 1.328125 -4.972656 1.328125 -6.390625 L 1.328125 -15.859375 Z M 5.203125 -15.859375 "/></g></g></g><g fill="#fefcfb" fill-opacity="1"><g transform="translate(53.654291, 122.772612)"><g><path d="M 19.359375 -15.859375 L 19.359375 0 L 15.5 0 L 15.5 -9.515625 L 11.953125 0 L 8.828125 0 L 5.265625 -9.53125 L 5.265625 0 L 1.40625 0 L 1.40625 -15.859375 L 5.96875 -15.859375 L 10.421875 -4.875 L 14.828125 -15.859375 Z M 19.359375 -15.859375 "/></g></g></g><g fill="#fefcfb" fill-opacity="1"><g transform="translate(74.393826, 122.772612)"><g><path d="M 5.203125 -15.859375 L 5.203125 -6.375 C 5.203125 -5.425781 5.429688 -4.691406 5.890625 -4.171875 C 6.359375 -3.660156 7.046875 -3.40625 7.953125 -3.40625 C 8.859375 -3.40625 9.550781 -3.660156 10.03125 -4.171875 C 10.507812 -4.691406 10.75 -5.425781 10.75 -6.375 L 10.75 -15.859375 L 14.625 -15.859375 L 14.625 -6.390625 C 14.625 -4.972656 14.320312 -3.773438 13.71875 -2.796875 C 13.113281 -1.816406 12.300781 -1.078125 11.28125 -0.578125 C 10.269531 -0.0859375 9.140625 0.15625 7.890625 0.15625 C 6.640625 0.15625 5.519531 -0.0859375 4.53125 -0.578125 C 3.539062 -1.066406 2.757812 -1.800781 2.1875 -2.78125 C 1.613281 -3.769531 1.328125 -4.972656 1.328125 -6.390625 L 1.328125 -15.859375 Z M 5.203125 -15.859375 "/></g></g></g><g fill="#fefcfb" fill-opacity="1"><g transform="translate(90.321239, 122.772612)"><g><path d="M 5.265625 -2.984375 L 10.328125 -2.984375 L 10.328125 0 L 1.40625 0 L 1.40625 -15.859375 L 5.265625 -15.859375 Z M 5.265625 -2.984375 "/></g></g></g><g fill="#fefcfb" fill-opacity="1"><g transform="translate(101.097658, 122.772612)"><g><path d="M 11.28125 -2.796875 L 5.359375 -2.796875 L 4.40625 0 L 0.359375 0 L 6.09375 -15.859375 L 10.578125 -15.859375 L 16.3125 0 L 12.21875 0 Z M 10.28125 -5.78125 L 8.3125 -11.59375 L 6.375 -5.78125 Z M 10.28125 -5.78125 "/></g></g></g><g fill="#fefcfb" fill-opacity="1"><g transform="translate(117.748023, 122.772612)"><g><path d="M 12.8125 -15.859375 L 12.8125 -12.765625 L 8.609375 -12.765625 L 8.609375 0 L 4.75 0 L 4.75 -12.765625 L 0.546875 -12.765625 L 0.546875 -15.859375 Z M 12.8125 -15.859375 "/></g></g></g><g fill="#fefcfb" fill-opacity="1"><g transform="translate(131.099945, 122.772612)"><g><path d="M 5.265625 -15.859375 L 5.265625 0 L 1.40625 0 L 1.40625 -15.859375 Z M 5.265625 -15.859375 "/></g></g></g><g fill="#fefcfb" fill-opacity="1"><g transform="translate(137.764607, 122.772612)"><g><path d="M 16.296875 -15.859375 L 10.671875 0 L 5.828125 0 L 0.203125 -15.859375 L 4.3125 -15.859375 L 8.25 -3.890625 L 12.203125 -15.859375 Z M 16.296875 -15.859375 "/></g></g></g><g fill="#fefcfb" fill-opacity="1"><g transform="translate(154.256825, 122.772612)"><g><path d="M 5.265625 -12.765625 L 5.265625 -9.5625 L 10.4375 -9.5625 L 10.4375 -6.578125 L 5.265625 -6.578125 L 5.265625 -3.09375 L 11.109375 -3.09375 L 11.109375 0 L 1.40625 0 L 1.40625 -15.859375 L 11.109375 -15.859375 L 11.109375 -12.765625 Z M 5.265625 -12.765625 "/></g></g></g><g fill="#fefcfb" fill-opacity="1"><g transform="translate(14.901668, 154.188834)"><g><path d="M 5.265625 -2.984375 L 10.328125 -2.984375 L 10.328125 0 L 1.40625 0 L 1.40625 -15.859375 L 5.265625 -15.859375 Z M 5.265625 -2.984375 "/></g></g></g><g fill="#fefcfb" fill-opacity="1"><g transform="translate(25.678087, 154.188834)"><g><path d="M 11.28125 -2.796875 L 5.359375 -2.796875 L 4.40625 0 L 0.359375 0 L 6.09375 -15.859375 L 10.578125 -15.859375 L 16.3125 0 L 12.21875 0 Z M 10.28125 -5.78125 L 8.3125 -11.59375 L 6.375 -5.78125 Z M 10.28125 -5.78125 "/></g></g></g><g fill="#fefcfb" fill-opacity="1"><g transform="translate(42.328452, 154.188834)"><g><path d="M 15 -15.859375 L 9.515625 -5.234375 L 9.515625 0 L 5.640625 0 L 5.640625 -5.234375 L 0.15625 -15.859375 L 4.546875 -15.859375 L 7.609375 -9.21875 L 10.671875 -15.859375 Z M 15 -15.859375 "/></g></g></g><g fill="#fefcfb" fill-opacity="1"><g transform="translate(57.487737, 154.188834)"><g><path d="M 8.90625 0.15625 C 7.414062 0.15625 6.046875 -0.1875 4.796875 -0.875 C 3.554688 -1.570312 2.570312 -2.539062 1.84375 -3.78125 C 1.113281 -5.019531 0.75 -6.414062 0.75 -7.96875 C 0.75 -9.519531 1.113281 -10.914062 1.84375 -12.15625 C 2.570312 -13.394531 3.554688 -14.359375 4.796875 -15.046875 C 6.046875 -15.742188 7.414062 -16.09375 8.90625 -16.09375 C 10.394531 -16.09375 11.757812 -15.742188 13 -15.046875 C 14.238281 -14.359375 15.21875 -13.394531 15.9375 -12.15625 C 16.65625 -10.914062 17.015625 -9.519531 17.015625 -7.96875 C 17.015625 -6.414062 16.648438 -5.019531 15.921875 -3.78125 C 15.203125 -2.539062 14.222656 -1.570312 12.984375 -0.875 C 11.753906 -0.1875 10.394531 0.15625 8.90625 0.15625 Z M 8.90625 -3.359375 C 10.164062 -3.359375 11.175781 -3.78125 11.9375 -4.625 C 12.695312 -5.46875 13.078125 -6.582031 13.078125 -7.96875 C 13.078125 -9.375 12.695312 -10.492188 11.9375 -11.328125 C 11.175781 -12.160156 10.164062 -12.578125 8.90625 -12.578125 C 7.625 -12.578125 6.601562 -12.160156 5.84375 -11.328125 C 5.082031 -10.503906 4.703125 -9.382812 4.703125 -7.96875 C 4.703125 -6.570312 5.082031 -5.453125 5.84375 -4.609375 C 6.601562 -3.773438 7.625 -3.359375 8.90625 -3.359375 Z M 8.90625 -3.359375 "/></g></g></g><g fill="#fefcfb" fill-opacity="1"><g transform="translate(75.245113, 154.188834)"><g><path d="M 5.203125 -15.859375 L 5.203125 -6.375 C 5.203125 -5.425781 5.429688 -4.691406 5.890625 -4.171875 C 6.359375 -3.660156 7.046875 -3.40625 7.953125 -3.40625 C 8.859375 -3.40625 9.550781 -3.660156 10.03125 -4.171875 C 10.507812 -4.691406 10.75 -5.425781 10.75 -6.375 L 10.75 -15.859375 L 14.625 -15.859375 L 14.625 -6.390625 C 14.625 -4.972656 14.320312 -3.773438 13.71875 -2.796875 C 13.113281 -1.816406 12.300781 -1.078125 11.28125 -0.578125 C 10.269531 -0.0859375 9.140625 0.15625 7.890625 0.15625 C 6.640625 0.15625 5.519531 -0.0859375 4.53125 -0.578125 C 3.539062 -1.066406 2.757812 -1.800781 2.1875 -2.78125 C 1.613281 -3.769531 1.328125 -4.972656 1.328125 -6.390625 L 1.328125 -15.859375 Z M 5.203125 -15.859375 "/></g></g></g><g fill="#fefcfb" fill-opacity="1"><g transform="translate(91.172526, 154.188834)"><g><path d="M 12.8125 -15.859375 L 12.8125 -12.765625 L 8.609375 -12.765625 L 8.609375 0 L 4.75 0 L 4.75 -12.765625 L 0.546875 -12.765625 L 0.546875 -15.859375 Z M 12.8125 -15.859375 "/></g></g></g><g fill="#fefcfb" fill-opacity="1"><g transform="translate(104.524448, 154.188834)"><g/></g></g><g fill="#fefcfb" fill-opacity="1"><g transform="translate(109.313971, 154.188834)"><g><path d="M 7.140625 0.15625 C 5.984375 0.15625 4.941406 -0.03125 4.015625 -0.40625 C 3.097656 -0.78125 2.363281 -1.335938 1.8125 -2.078125 C 1.269531 -2.816406 0.984375 -3.707031 0.953125 -4.75 L 5.0625 -4.75 C 5.125 -4.15625 5.328125 -3.703125 5.671875 -3.390625 C 6.015625 -3.085938 6.46875 -2.9375 7.03125 -2.9375 C 7.601562 -2.9375 8.050781 -3.066406 8.375 -3.328125 C 8.707031 -3.597656 8.875 -3.960938 8.875 -4.421875 C 8.875 -4.816406 8.742188 -5.140625 8.484375 -5.390625 C 8.222656 -5.648438 7.898438 -5.863281 7.515625 -6.03125 C 7.128906 -6.195312 6.582031 -6.382812 5.875 -6.59375 C 4.851562 -6.914062 4.015625 -7.234375 3.359375 -7.546875 C 2.710938 -7.859375 2.15625 -8.320312 1.6875 -8.9375 C 1.226562 -9.5625 1 -10.367188 1 -11.359375 C 1 -12.835938 1.53125 -13.992188 2.59375 -14.828125 C 3.664062 -15.671875 5.0625 -16.09375 6.78125 -16.09375 C 8.53125 -16.09375 9.9375 -15.671875 11 -14.828125 C 12.070312 -13.992188 12.644531 -12.832031 12.71875 -11.34375 L 8.546875 -11.34375 C 8.515625 -11.851562 8.320312 -12.253906 7.96875 -12.546875 C 7.625 -12.835938 7.179688 -12.984375 6.640625 -12.984375 C 6.171875 -12.984375 5.789062 -12.859375 5.5 -12.609375 C 5.21875 -12.367188 5.078125 -12.015625 5.078125 -11.546875 C 5.078125 -11.035156 5.316406 -10.632812 5.796875 -10.34375 C 6.285156 -10.0625 7.039062 -9.753906 8.0625 -9.421875 C 9.09375 -9.078125 9.925781 -8.742188 10.5625 -8.421875 C 11.195312 -8.109375 11.75 -7.648438 12.21875 -7.046875 C 12.6875 -6.441406 12.921875 -5.664062 12.921875 -4.71875 C 12.921875 -3.8125 12.691406 -2.988281 12.234375 -2.25 C 11.773438 -1.519531 11.109375 -0.9375 10.234375 -0.5 C 9.359375 -0.0625 8.328125 0.15625 7.140625 0.15625 Z M 7.140625 0.15625 "/></g></g></g><g fill="#fefcfb" fill-opacity="1"><g transform="translate(123.208098, 154.188834)"><g><path d="M 15.140625 -15.859375 L 15.140625 0 L 11.28125 0 L 11.28125 -6.53125 L 5.265625 -6.53125 L 5.265625 0 L 1.40625 0 L 1.40625 -15.859375 L 5.265625 -15.859375 L 5.265625 -9.640625 L 11.28125 -9.640625 L 11.28125 -15.859375 Z M 15.140625 -15.859375 "/></g></g></g><g fill="#fefcfb" fill-opacity="1"><g transform="translate(139.722915, 154.188834)"><g><path d="M 5.265625 -15.859375 L 5.265625 0 L 1.40625 0 L 1.40625 -15.859375 Z M 5.265625 -15.859375 "/></g></g></g><g fill="#fefcfb" fill-opacity="1"><g transform="translate(146.387576, 154.188834)"><g><path d="M 11.71875 -15.859375 L 11.71875 -12.765625 L 5.265625 -12.765625 L 5.265625 -9.421875 L 10.09375 -9.421875 L 10.09375 -6.421875 L 5.265625 -6.421875 L 5.265625 0 L 1.40625 0 L 1.40625 -15.859375 Z M 11.71875 -15.859375 "/></g></g></g><g fill="#fefcfb" fill-opacity="1"><g transform="translate(158.745449, 154.188834)"><g><path d="M 12.8125 -15.859375 L 12.8125 -12.765625 L 8.609375 -12.765625 L 8.609375 0 L 4.75 0 L 4.75 -12.765625 L 0.546875 -12.765625 L 0.546875 -15.859375 Z M 12.8125 -15.859375 "/></g></g></g></svg>