<svg xmlns="http://www.w3.org/2000/svg" xmlns:xlink="http://www.w3.org/1999/xlink" width="250" zoomAndPan="magnify" viewBox="0 0 187.5 262.500001" height="350" preserveAspectRatio="xMidYMid meet" version="1.0"><defs><g/><clipPath id="dffe733398"><path d="M 0 0.101562 L 187 0.101562 L 187 261.902344 L 0 261.902344 Z M 0 0.101562 " clip-rule="nonzero"/></clipPath></defs><g clip-path="url(#dffe733398)"><path fill="#ffffff" d="M 0 0.101562 L 187 0.101562 L 187 261.902344 L 0 261.902344 Z M 0 0.101562 " fill-opacity="1" fill-rule="nonzero"/><path fill="#57abdb" d="M 0 0.101562 L 187 0.101562 L 187 261.902344 L 0 261.902344 Z M 0 0.101562 " fill-opacity="1" fill-rule="nonzero"/></g><g fill="#fefcfb" fill-opacity="1"><g transform="translate(15.965238, 107.064501)"><g><path d="M 5.6875 -15.921875 L 5.6875 0 L 1.265625 0 L 1.265625 -15.921875 Z M 5.6875 -15.921875 "/></g></g></g><g fill="#fefcfb" fill-opacity="1"><g transform="translate(22.923595, 107.064501)"><g><path d="M 16.015625 0 L 11.59375 0 L 5.6875 -8.90625 L 5.6875 0 L 1.265625 0 L 1.265625 -15.921875 L 5.6875 -15.921875 L 11.59375 -6.90625 L 11.59375 -15.921875 L 16.015625 -15.921875 Z M 16.015625 0 "/></g></g></g><g fill="#fefcfb" fill-opacity="1"><g transform="translate(40.20654, 107.064501)"><g><path d="M 13.265625 -15.921875 L 13.265625 -12.40625 L 9.015625 -12.40625 L 9.015625 0 L 4.59375 0 L 4.59375 -12.40625 L 0.390625 -12.40625 L 0.390625 -15.921875 Z M 13.265625 -15.921875 "/></g></g></g><g fill="#fefcfb" fill-opacity="1"><g transform="translate(53.852158, 107.064501)"><g><path d="M 5.6875 -12.375 L 5.6875 -9.78125 L 10.78125 -9.78125 L 10.78125 -6.421875 L 5.6875 -6.421875 L 5.6875 -3.546875 L 11.453125 -3.546875 L 11.453125 0 L 1.265625 0 L 1.265625 -15.921875 L 11.453125 -15.921875 L 11.453125 -12.375 Z M 5.6875 -12.375 "/></g></g></g><g fill="#fefcfb" fill-opacity="1"><g transform="translate(66.232618, 107.064501)"><g><path d="M 9.328125 0 L 6.171875 -5.875 L 5.6875 -5.875 L 5.6875 0 L 1.265625 0 L 1.265625 -15.921875 L 8.25 -15.921875 C 9.53125 -15.921875 10.613281 -15.695312 11.5 -15.25 C 12.382812 -14.8125 13.050781 -14.203125 13.5 -13.421875 C 13.957031 -12.648438 14.1875 -11.785156 14.1875 -10.828125 C 14.1875 -9.742188 13.890625 -8.789062 13.296875 -7.96875 C 12.703125 -7.144531 11.832031 -6.5625 10.6875 -6.21875 L 14.28125 0 Z M 5.6875 -8.90625 L 7.890625 -8.90625 C 8.484375 -8.90625 8.929688 -9.046875 9.234375 -9.328125 C 9.535156 -9.617188 9.6875 -10.035156 9.6875 -10.578125 C 9.6875 -11.085938 9.53125 -11.488281 9.21875 -11.78125 C 8.914062 -12.070312 8.472656 -12.21875 7.890625 -12.21875 L 5.6875 -12.21875 Z M 5.6875 -8.90625 "/></g></g></g><g fill="#fefcfb" fill-opacity="1"><g transform="translate(81.165981, 107.064501)"><g><path d="M 11.34375 -2.59375 L 5.6875 -2.59375 L 4.828125 0 L 0.1875 0 L 5.984375 -15.921875 L 11.09375 -15.921875 L 16.875 0 L 12.203125 0 Z M 10.234375 -5.984375 L 8.515625 -11.140625 L 6.828125 -5.984375 Z M 10.234375 -5.984375 "/></g></g></g><g fill="#fefcfb" fill-opacity="1"><g transform="translate(98.223004, 107.064501)"><g><path d="M 0.71875 -8 C 0.71875 -9.5625 1.046875 -10.957031 1.703125 -12.1875 C 2.359375 -13.414062 3.285156 -14.375 4.484375 -15.0625 C 5.691406 -15.75 7.082031 -16.09375 8.65625 -16.09375 C 10.644531 -16.09375 12.316406 -15.5625 13.671875 -14.5 C 15.023438 -13.4375 15.898438 -11.992188 16.296875 -10.171875 L 11.515625 -10.171875 C 11.234375 -10.773438 10.835938 -11.234375 10.328125 -11.546875 C 9.828125 -11.859375 9.242188 -12.015625 8.578125 -12.015625 C 7.554688 -12.015625 6.738281 -11.648438 6.125 -10.921875 C 5.519531 -10.191406 5.21875 -9.21875 5.21875 -8 C 5.21875 -6.757812 5.519531 -5.773438 6.125 -5.046875 C 6.738281 -4.316406 7.554688 -3.953125 8.578125 -3.953125 C 9.242188 -3.953125 9.828125 -4.109375 10.328125 -4.421875 C 10.835938 -4.742188 11.234375 -5.207031 11.515625 -5.8125 L 16.296875 -5.8125 C 15.898438 -3.988281 15.023438 -2.546875 13.671875 -1.484375 C 12.316406 -0.421875 10.644531 0.109375 8.65625 0.109375 C 7.082031 0.109375 5.691406 -0.226562 4.484375 -0.90625 C 3.285156 -1.59375 2.359375 -2.550781 1.703125 -3.78125 C 1.046875 -5.007812 0.71875 -6.414062 0.71875 -8 Z M 0.71875 -8 "/></g></g></g><g fill="#fefcfb" fill-opacity="1"><g transform="translate(115.347801, 107.064501)"><g><path d="M 13.265625 -15.921875 L 13.265625 -12.40625 L 9.015625 -12.40625 L 9.015625 0 L 4.59375 0 L 4.59375 -12.40625 L 0.390625 -12.40625 L 0.390625 -15.921875 Z M 13.265625 -15.921875 "/></g></g></g><g fill="#fefcfb" fill-opacity="1"><g transform="translate(128.993419, 107.064501)"><g><path d="M 5.6875 -15.921875 L 5.6875 0 L 1.265625 0 L 1.265625 -15.921875 Z M 5.6875 -15.921875 "/></g></g></g><g fill="#fefcfb" fill-opacity="1"><g transform="translate(135.951776, 107.064501)"><g><path d="M 8.90625 0.15625 C 7.414062 0.15625 6.046875 -0.191406 4.796875 -0.890625 C 3.546875 -1.585938 2.550781 -2.554688 1.8125 -3.796875 C 1.082031 -5.046875 0.71875 -6.453125 0.71875 -8.015625 C 0.71875 -9.585938 1.082031 -10.992188 1.8125 -12.234375 C 2.550781 -13.472656 3.546875 -14.4375 4.796875 -15.125 C 6.046875 -15.820312 7.414062 -16.171875 8.90625 -16.171875 C 10.40625 -16.171875 11.773438 -15.820312 13.015625 -15.125 C 14.265625 -14.4375 15.25 -13.472656 15.96875 -12.234375 C 16.695312 -10.992188 17.0625 -9.585938 17.0625 -8.015625 C 17.0625 -6.453125 16.695312 -5.046875 15.96875 -3.796875 C 15.25 -2.554688 14.265625 -1.585938 13.015625 -0.890625 C 11.765625 -0.191406 10.394531 0.15625 8.90625 0.15625 Z M 8.90625 -3.953125 C 10.03125 -3.953125 10.921875 -4.320312 11.578125 -5.0625 C 12.234375 -5.800781 12.5625 -6.785156 12.5625 -8.015625 C 12.5625 -9.285156 12.234375 -10.285156 11.578125 -11.015625 C 10.921875 -11.742188 10.03125 -12.109375 8.90625 -12.109375 C 7.757812 -12.109375 6.859375 -11.742188 6.203125 -11.015625 C 5.554688 -10.285156 5.234375 -9.285156 5.234375 -8.015625 C 5.234375 -6.765625 5.554688 -5.773438 6.203125 -5.046875 C 6.859375 -4.316406 7.757812 -3.953125 8.90625 -3.953125 Z M 8.90625 -3.953125 "/></g></g></g><g fill="#fefcfb" fill-opacity="1"><g transform="translate(153.731739, 107.064501)"><g><path d="M 16.015625 0 L 11.59375 0 L 5.6875 -8.90625 L 5.6875 0 L 1.265625 0 L 1.265625 -15.921875 L 5.6875 -15.921875 L 11.59375 -6.90625 L 11.59375 -15.921875 L 16.015625 -15.921875 Z M 16.015625 0 "/></g></g></g><g fill="#fefcfb" fill-opacity="1"><g transform="translate(75.61866, 138.480723)"><g><path d="M 13.265625 -15.921875 L 13.265625 -12.40625 L 9.015625 -12.40625 L 9.015625 0 L 4.59375 0 L 4.59375 -12.40625 L 0.390625 -12.40625 L 0.390625 -15.921875 Z M 13.265625 -15.921875 "/></g></g></g><g fill="#fefcfb" fill-opacity="1"><g transform="translate(89.264278, 138.480723)"><g><path d="M 8.90625 0.15625 C 7.414062 0.15625 6.046875 -0.191406 4.796875 -0.890625 C 3.546875 -1.585938 2.550781 -2.554688 1.8125 -3.796875 C 1.082031 -5.046875 0.71875 -6.453125 0.71875 -8.015625 C 0.71875 -9.585938 1.082031 -10.992188 1.8125 -12.234375 C 2.550781 -13.472656 3.546875 -14.4375 4.796875 -15.125 C 6.046875 -15.820312 7.414062 -16.171875 8.90625 -16.171875 C 10.40625 -16.171875 11.773438 -15.820312 13.015625 -15.125 C 14.265625 -14.4375 15.25 -13.472656 15.96875 -12.234375 C 16.695312 -10.992188 17.0625 -9.585938 17.0625 -8.015625 C 17.0625 -6.453125 16.695312 -5.046875 15.96875 -3.796875 C 15.25 -2.554688 14.265625 -1.585938 13.015625 -0.890625 C 11.765625 -0.191406 10.394531 0.15625 8.90625 0.15625 Z M 8.90625 -3.953125 C 10.03125 -3.953125 10.921875 -4.320312 11.578125 -5.0625 C 12.234375 -5.800781 12.5625 -6.785156 12.5625 -8.015625 C 12.5625 -9.285156 12.234375 -10.285156 11.578125 -11.015625 C 10.921875 -11.742188 10.03125 -12.109375 8.90625 -12.109375 C 7.757812 -12.109375 6.859375 -11.742188 6.203125 -11.015625 C 5.554688 -10.285156 5.234375 -9.285156 5.234375 -8.015625 C 5.234375 -6.765625 5.554688 -5.773438 6.203125 -5.046875 C 6.859375 -4.316406 7.757812 -3.953125 8.90625 -3.953125 Z M 8.90625 -3.953125 "/></g></g></g><g fill="#fefcfb" fill-opacity="1"><g transform="translate(107.046569, 138.480723)"><g/></g></g><g fill="#fefcfb" fill-opacity="1"><g transform="translate(26.682751, 169.896945)"><g><path d="M 16.015625 0 L 11.59375 0 L 5.6875 -8.90625 L 5.6875 0 L 1.265625 0 L 1.265625 -15.921875 L 5.6875 -15.921875 L 11.59375 -6.90625 L 11.59375 -15.921875 L 16.015625 -15.921875 Z M 16.015625 0 "/></g></g></g><g fill="#fefcfb" fill-opacity="1"><g transform="translate(43.965695, 169.896945)"><g><path d="M 5.6875 -12.375 L 5.6875 -9.78125 L 10.78125 -9.78125 L 10.78125 -6.421875 L 5.6875 -6.421875 L 5.6875 -3.546875 L 11.453125 -3.546875 L 11.453125 0 L 1.265625 0 L 1.265625 -15.921875 L 11.453125 -15.921875 L 11.453125 -12.375 Z M 5.6875 -12.375 "/></g></g></g><g fill="#fefcfb" fill-opacity="1"><g transform="translate(56.346155, 169.896945)"><g><path d="M 11.234375 0 L 8.140625 -4.5 L 5.484375 0 L 0.453125 0 L 5.625 -8.15625 L 0.265625 -15.921875 L 5.484375 -15.921875 L 8.5 -11.546875 L 11.078125 -15.921875 L 16.109375 -15.921875 L 11 -7.90625 L 16.453125 0 Z M 11.234375 0 "/></g></g></g><g fill="#fefcfb" fill-opacity="1"><g transform="translate(73.041707, 169.896945)"><g><path d="M 13.265625 -15.921875 L 13.265625 -12.40625 L 9.015625 -12.40625 L 9.015625 0 L 4.59375 0 L 4.59375 -12.40625 L 0.390625 -12.40625 L 0.390625 -15.921875 Z M 13.265625 -15.921875 "/></g></g></g><g fill="#fefcfb" fill-opacity="1"><g transform="translate(86.687325, 169.896945)"><g/></g></g><g fill="#fefcfb" fill-opacity="1"><g transform="translate(91.002417, 169.896945)"><g><path d="M 13.84375 -10.625 C 13.84375 -9.65625 13.617188 -8.773438 13.171875 -7.984375 C 12.734375 -7.191406 12.066406 -6.554688 11.171875 -6.078125 C 10.273438 -5.609375 9.179688 -5.375 7.890625 -5.375 L 5.6875 -5.375 L 5.6875 0 L 1.265625 0 L 1.265625 -15.921875 L 7.890625 -15.921875 C 9.171875 -15.921875 10.257812 -15.695312 11.15625 -15.25 C 12.050781 -14.800781 12.722656 -14.175781 13.171875 -13.375 C 13.617188 -12.570312 13.84375 -11.65625 13.84375 -10.625 Z M 7.453125 -8.90625 C 8.703125 -8.90625 9.328125 -9.476562 9.328125 -10.625 C 9.328125 -11.78125 8.703125 -12.359375 7.453125 -12.359375 L 5.6875 -12.359375 L 5.6875 -8.90625 Z M 7.453125 -8.90625 "/></g></g></g><g fill="#fefcfb" fill-opacity="1"><g transform="translate(105.370976, 169.896945)"><g><path d="M 11.34375 -2.59375 L 5.6875 -2.59375 L 4.828125 0 L 0.1875 0 L 5.984375 -15.921875 L 11.09375 -15.921875 L 16.875 0 L 12.203125 0 Z M 10.234375 -5.984375 L 8.515625 -11.140625 L 6.828125 -5.984375 Z M 10.234375 -5.984375 "/></g></g></g><g fill="#fefcfb" fill-opacity="1"><g transform="translate(122.427999, 169.896945)"><g><path d="M 5.6875 -15.921875 L 5.6875 0 L 1.265625 0 L 1.265625 -15.921875 Z M 5.6875 -15.921875 "/></g></g></g><g fill="#fefcfb" fill-opacity="1"><g transform="translate(129.386356, 169.896945)"><g><path d="M 16.015625 0 L 11.59375 0 L 5.6875 -8.90625 L 5.6875 0 L 1.265625 0 L 1.265625 -15.921875 L 5.6875 -15.921875 L 11.59375 -6.90625 L 11.59375 -15.921875 L 16.015625 -15.921875 Z M 16.015625 0 "/></g></g></g><g fill="#fefcfb" fill-opacity="1"><g transform="translate(146.6693, 169.896945)"><g><path d="M 13.265625 -15.921875 L 13.265625 -12.40625 L 9.015625 -12.40625 L 9.015625 0 L 4.59375 0 L 4.59375 -12.40625 L 0.390625 -12.40625 L 0.390625 -15.921875 Z M 13.265625 -15.921875 "/></g></g></g></svg>