<svg xmlns="http://www.w3.org/2000/svg" xmlns:xlink="http://www.w3.org/1999/xlink" width="250" zoomAndPan="magnify" viewBox="0 0 187.5 262.500001" height="350" preserveAspectRatio="xMidYMid meet" version="1.0"><defs><g/><clipPath id="6d832a61ba"><path d="M 0 0.101562 L 187 0.101562 L 187 261.902344 L 0 261.902344 Z M 0 0.101562 " clip-rule="nonzero"/></clipPath></defs><g clip-path="url(#6d832a61ba)"><path fill="#ffffff" d="M 0 0.101562 L 187 0.101562 L 187 261.902344 L 0 261.902344 Z M 0 0.101562 " fill-opacity="1" fill-rule="nonzero"/><path fill="#0d6382" d="M 0 0.101562 L 187 0.101562 L 187 261.902344 L 0 261.902344 Z M 0 0.101562 " fill-opacity="1" fill-rule="nonzero"/></g><g fill="#fefcfb" fill-opacity="1"><g transform="translate(46.411391, 122.772612)"><g><path d="M 13.265625 -15.921875 L 13.265625 -12.40625 L 9.015625 -12.40625 L 9.015625 0 L 4.59375 0 L 4.59375 -12.40625 L 0.390625 -12.40625 L 0.390625 -15.921875 Z M 13.265625 -15.921875 "/></g></g></g><g fill="#fefcfb" fill-opacity="1"><g transform="translate(60.057009, 122.772612)"><g><path d="M 5.6875 -15.921875 L 5.6875 0 L 1.265625 0 L 1.265625 -15.921875 Z M 5.6875 -15.921875 "/></g></g></g><g fill="#fefcfb" fill-opacity="1"><g transform="translate(67.015366, 122.772612)"><g><path d="M 19.859375 -15.921875 L 19.859375 0 L 15.4375 0 L 15.4375 -8.78125 L 12.421875 0 L 8.71875 0 L 5.6875 -8.859375 L 5.6875 0 L 1.265625 0 L 1.265625 -15.921875 L 6.625 -15.921875 L 10.625 -5.578125 L 14.53125 -15.921875 Z M 19.859375 -15.921875 "/></g></g></g><g fill="#fefcfb" fill-opacity="1"><g transform="translate(88.13896, 122.772612)"><g><path d="M 5.6875 -12.375 L 5.6875 -9.78125 L 10.78125 -9.78125 L 10.78125 -6.421875 L 5.6875 -6.421875 L 5.6875 -3.546875 L 11.453125 -3.546875 L 11.453125 0 L 1.265625 0 L 1.265625 -15.921875 L 11.453125 -15.921875 L 11.453125 -12.375 Z M 5.6875 -12.375 "/></g></g></g><g fill="#fefcfb" fill-opacity="1"><g transform="translate(100.51942, 122.772612)"><g/></g></g><g fill="#fefcfb" fill-opacity="1"><g transform="translate(104.834512, 122.772612)"><g><path d="M 13.265625 -15.921875 L 13.265625 -12.40625 L 9.015625 -12.40625 L 9.015625 0 L 4.59375 0 L 4.59375 -12.40625 L 0.390625 -12.40625 L 0.390625 -15.921875 Z M 13.265625 -15.921875 "/></g></g></g><g fill="#fefcfb" fill-opacity="1"><g transform="translate(118.48013, 122.772612)"><g><path d="M 8.90625 0.15625 C 7.414062 0.15625 6.046875 -0.191406 4.796875 -0.890625 C 3.546875 -1.585938 2.550781 -2.554688 1.8125 -3.796875 C 1.082031 -5.046875 0.71875 -6.453125 0.71875 -8.015625 C 0.71875 -9.585938 1.082031 -10.992188 1.8125 -12.234375 C 2.550781 -13.472656 3.546875 -14.4375 4.796875 -15.125 C 6.046875 -15.820312 7.414062 -16.171875 8.90625 -16.171875 C 10.40625 -16.171875 11.773438 -15.820312 13.015625 -15.125 C 14.265625 -14.4375 15.25 -13.472656 15.96875 -12.234375 C 16.695312 -10.992188 17.0625 -9.585938 17.0625 -8.015625 C 17.0625 -6.453125 16.695312 -5.046875 15.96875 -3.796875 C 15.25 -2.554688 14.265625 -1.585938 13.015625 -0.890625 C 11.765625 -0.191406 10.394531 0.15625 8.90625 0.15625 Z M 8.90625 -3.953125 C 10.03125 -3.953125 10.921875 -4.320312 11.578125 -5.0625 C 12.234375 -5.800781 12.5625 -6.785156 12.5625 -8.015625 C 12.5625 -9.285156 12.234375 -10.285156 11.578125 -11.015625 C 10.921875 -11.742188 10.03125 -12.109375 8.90625 -12.109375 C 7.757812 -12.109375 6.859375 -11.742188 6.203125 -11.015625 C 5.554688 -10.285156 5.234375 -9.285156 5.234375 -8.015625 C 5.234375 -6.765625 5.554688 -5.773438 6.203125 -5.046875 C 6.859375 -4.316406 7.757812 -3.953125 8.90625 -3.953125 Z M 8.90625 -3.953125 "/></g></g></g><g fill="#fefcfb" fill-opacity="1"><g transform="translate(136.265526, 122.772612)"><g/></g></g><g fill="#fefcfb" fill-opacity="1"><g transform="translate(29.557896, 154.188834)"><g><path d="M 12.0625 -15.921875 L 12.0625 -12.40625 L 5.6875 -12.40625 L 5.6875 -9.609375 L 10.390625 -9.609375 L 10.390625 -6.234375 L 5.6875 -6.234375 L 5.6875 0 L 1.265625 0 L 1.265625 -15.921875 Z M 12.0625 -15.921875 "/></g></g></g><g fill="#fefcfb" fill-opacity="1"><g transform="translate(42.232052, 154.188834)"><g><path d="M 5.6875 -15.921875 L 5.6875 0 L 1.265625 0 L 1.265625 -15.921875 Z M 5.6875 -15.921875 "/></g></g></g><g fill="#fefcfb" fill-opacity="1"><g transform="translate(49.19041, 154.188834)"><g><path d="M 9.328125 0 L 6.171875 -5.875 L 5.6875 -5.875 L 5.6875 0 L 1.265625 0 L 1.265625 -15.921875 L 8.25 -15.921875 C 9.53125 -15.921875 10.613281 -15.695312 11.5 -15.25 C 12.382812 -14.8125 13.050781 -14.203125 13.5 -13.421875 C 13.957031 -12.648438 14.1875 -11.785156 14.1875 -10.828125 C 14.1875 -9.742188 13.890625 -8.789062 13.296875 -7.96875 C 12.703125 -7.144531 11.832031 -6.5625 10.6875 -6.21875 L 14.28125 0 Z M 5.6875 -8.90625 L 7.890625 -8.90625 C 8.484375 -8.90625 8.929688 -9.046875 9.234375 -9.328125 C 9.535156 -9.617188 9.6875 -10.035156 9.6875 -10.578125 C 9.6875 -11.085938 9.53125 -11.488281 9.21875 -11.78125 C 8.914062 -12.070312 8.472656 -12.21875 7.890625 -12.21875 L 5.6875 -12.21875 Z M 5.6875 -8.90625 "/></g></g></g><g fill="#fefcfb" fill-opacity="1"><g transform="translate(64.123774, 154.188834)"><g><path d="M 7.28125 0.15625 C 5.425781 0.15625 3.898438 -0.28125 2.703125 -1.15625 C 1.515625 -2.039062 0.878906 -3.304688 0.796875 -4.953125 L 5.515625 -4.953125 C 5.554688 -4.390625 5.71875 -3.976562 6 -3.71875 C 6.289062 -3.46875 6.660156 -3.34375 7.109375 -3.34375 C 7.523438 -3.34375 7.863281 -3.441406 8.125 -3.640625 C 8.382812 -3.847656 8.515625 -4.132812 8.515625 -4.5 C 8.515625 -4.96875 8.296875 -5.328125 7.859375 -5.578125 C 7.421875 -5.835938 6.710938 -6.125 5.734375 -6.4375 C 4.703125 -6.78125 3.863281 -7.113281 3.21875 -7.4375 C 2.582031 -7.769531 2.023438 -8.25 1.546875 -8.875 C 1.078125 -9.5 0.84375 -10.3125 0.84375 -11.3125 C 0.84375 -12.34375 1.097656 -13.222656 1.609375 -13.953125 C 2.117188 -14.679688 2.820312 -15.234375 3.71875 -15.609375 C 4.625 -15.984375 5.648438 -16.171875 6.796875 -16.171875 C 8.648438 -16.171875 10.128906 -15.738281 11.234375 -14.875 C 12.347656 -14.007812 12.941406 -12.796875 13.015625 -11.234375 L 8.203125 -11.234375 C 8.179688 -11.710938 8.03125 -12.070312 7.75 -12.3125 C 7.476562 -12.550781 7.125 -12.671875 6.6875 -12.671875 C 6.351562 -12.671875 6.082031 -12.570312 5.875 -12.375 C 5.664062 -12.1875 5.5625 -11.910156 5.5625 -11.546875 C 5.5625 -11.242188 5.675781 -10.984375 5.90625 -10.765625 C 6.144531 -10.546875 6.4375 -10.359375 6.78125 -10.203125 C 7.125 -10.046875 7.632812 -9.847656 8.3125 -9.609375 C 9.320312 -9.253906 10.15625 -8.90625 10.8125 -8.5625 C 11.46875 -8.226562 12.03125 -7.753906 12.5 -7.140625 C 12.976562 -6.535156 13.21875 -5.765625 13.21875 -4.828125 C 13.21875 -3.878906 12.976562 -3.03125 12.5 -2.28125 C 12.03125 -1.53125 11.347656 -0.9375 10.453125 -0.5 C 9.554688 -0.0625 8.5 0.15625 7.28125 0.15625 Z M 7.28125 0.15625 "/></g></g></g><g fill="#fefcfb" fill-opacity="1"><g transform="translate(78.130862, 154.188834)"><g><path d="M 13.265625 -15.921875 L 13.265625 -12.40625 L 9.015625 -12.40625 L 9.015625 0 L 4.59375 0 L 4.59375 -12.40625 L 0.390625 -12.40625 L 0.390625 -15.921875 Z M 13.265625 -15.921875 "/></g></g></g><g fill="#fefcfb" fill-opacity="1"><g transform="translate(91.776481, 154.188834)"><g/></g></g><g fill="#fefcfb" fill-opacity="1"><g transform="translate(96.091573, 154.188834)"><g><path d="M 11.4375 -8.171875 C 12.363281 -7.960938 13.101562 -7.5 13.65625 -6.78125 C 14.207031 -6.070312 14.484375 -5.257812 14.484375 -4.34375 C 14.484375 -2.976562 14.015625 -1.910156 13.078125 -1.140625 C 12.148438 -0.378906 10.84375 0 9.15625 0 L 1.265625 0 L 1.265625 -15.921875 L 8.90625 -15.921875 C 10.53125 -15.921875 11.804688 -15.5625 12.734375 -14.84375 C 13.660156 -14.125 14.125 -13.109375 14.125 -11.796875 C 14.125 -10.859375 13.878906 -10.078125 13.390625 -9.453125 C 12.898438 -8.828125 12.25 -8.398438 11.4375 -8.171875 Z M 5.6875 -9.609375 L 7.9375 -9.609375 C 9.050781 -9.609375 9.609375 -10.066406 9.609375 -10.984375 C 9.609375 -11.929688 9.050781 -12.40625 7.9375 -12.40625 L 5.6875 -12.40625 Z M 8.265625 -3.5625 C 9.378906 -3.5625 9.9375 -4.03125 9.9375 -4.96875 C 9.9375 -5.445312 9.789062 -5.816406 9.5 -6.078125 C 9.207031 -6.335938 8.789062 -6.46875 8.25 -6.46875 L 5.6875 -6.46875 L 5.6875 -3.5625 Z M 8.265625 -3.5625 "/></g></g></g><g fill="#fefcfb" fill-opacity="1"><g transform="translate(111.250858, 154.188834)"><g><path d="M 15.75 -15.921875 L 10.140625 -5.0625 L 10.140625 0 L 5.6875 0 L 5.6875 -5.0625 L 0.09375 -15.921875 L 5.15625 -15.921875 L 7.953125 -9.78125 L 10.75 -15.921875 Z M 15.75 -15.921875 "/></g></g></g><g fill="#fefcfb" fill-opacity="1"><g transform="translate(127.087909, 154.188834)"><g><path d="M 13.265625 -15.921875 L 13.265625 -12.40625 L 9.015625 -12.40625 L 9.015625 0 L 4.59375 0 L 4.59375 -12.40625 L 0.390625 -12.40625 L 0.390625 -15.921875 Z M 13.265625 -15.921875 "/></g></g></g><g fill="#fefcfb" fill-opacity="1"><g transform="translate(140.733528, 154.188834)"><g><path d="M 5.6875 -12.375 L 5.6875 -9.78125 L 10.78125 -9.78125 L 10.78125 -6.421875 L 5.6875 -6.421875 L 5.6875 -3.546875 L 11.453125 -3.546875 L 11.453125 0 L 1.265625 0 L 1.265625 -15.921875 L 11.453125 -15.921875 L 11.453125 -12.375 Z M 5.6875 -12.375 "/></g></g></g><g fill="#fefcfb" fill-opacity="1"><g transform="translate(153.11902, 154.188834)"><g/></g></g></svg>